<svg xmlns="http://www.w3.org/2000/svg" viewBox="3969 5115 14552 14658"><text x="4269" y="5295">FLOOR_1_PLAN GEOMETRY_ONLY_NON_ENGINEERING</text><path data-layer="room-boundary" data-room-id="FLOOR_1_PLAN:d82596ad96a4009a:ROOM" d="M 8996,16809 L 8996,19473 L 13740,19473 L 13740,16809 L 8996,16809" fill="none" stroke="#18a558" stroke-width="20"/><path data-layer="coverage-route" data-room-id="FLOOR_1_PLAN:d82596ad96a4009a:ROOM" data-circuit-id="FLOOR_1_PLAN:d82596ad96a4009a:ROOM/circuit-1" d="M 9096,17009 L 13641,17009 L 13641,17209 L 9096,17209 L 9096,17409 L 13641,17409 L 13641,17609 L 9096,17609 L 9096,17809 L 13641,17809 L 13641,18009 L 9096,18009 L 9096,18209 L 13641,18209 L 13641,18409 L 9096,18409 L 9096,18609 L 13641,18609 L 13641,18809 L 9096,18809 L 9096,19009 L 13641,19009 L 13641,19209 L 9096,19209" fill="none" stroke="#1677ff" stroke-width="10"/><text x="9026" y="16889" font-size="55">1 / 12.9; Вх. гр. [ROUTED_VALID]</text><path data-layer="room-boundary" data-room-id="FLOOR_1_PLAN:23e1c19b1e8cd7bd:ROOM" d="M 11042,6509 L 11024,6526 L 11024,6544 L 11006,6562 L 10989,6579 L 10989,6597 L 10971,6614 L 10953,6632 L 10936,6650 L 10936,6667 L 10918,6685 L 10901,6703 L 10901,6720 L 10883,6738 L 10865,6756 L 10865,6773 L 10848,6791 L 10830,6808 L 10812,6826 L 10812,6844 L 10795,6861 L 10777,6879 L 10777,6897 L 10759,6914 L 10742,6932 L 10742,6950 L 10724,6967 L 10707,6985 L 10689,7002 L 10689,7020 L 10671,7038 L 10654,7055 L 10654,7073 L 10636,7091 L 10618,7108 L 10618,7126 L 10601,7144 L 10583,7161 L 10565,7179 L 10565,7197 L 10548,7214 L 10530,7232 L 10530,7249 L 10513,7267 L 10495,7285 L 10495,7302 L 10477,7320 L 10460,7338 L 10442,7355 L 10442,7373 L 10424,7391 L 10407,7408 L 10407,7426 L 10389,7443 L 10371,7461 L 10371,7479 L 10354,7496 L 10336,7514 L 10319,7532 L 10319,7549 L 10301,7567 L 10283,7585 L 10283,7602 L 10266,7620 L 10248,7637 L 10248,7655 L 10230,7673 L 10213,7690 L 10195,7708 L 10195,7726 L 10177,7743 L 10160,7761 L 10160,7779 L 10142,7796 L 10124,7814 L 10124,7831 L 10107,7849 L 10089,7867 L 10072,7884 L 10072,7902 L 10054,7920 L 10036,7937 L 10036,7955 L 10019,7973 L 10001,7990 L 10001,8008 L 9983,8026 L 9966,8043 L 9948,8061 L 10019,8078 L 10019,8096 L 9913,8114 L 9913,8131 L 9895,8149 L 9878,8167 L 9878,8184 L 9860,8202 L 9842,8220 L 9825,8237 L 9825,8255 L 9807,8272 L 9789,8290 L 9789,8308 L 9772,8325 L 9754,8343 L 9754,8361 L 9736,8378 L 9719,8396 L 9701,8414 L 9701,8431 L 9684,8449 L 9666,8466 L 9666,8484 L 9648,8502 L 9631,8519 L 9631,11218 L 10019,11236 L 9631,11253 L 9631,13370 L 10019,13388 L 9631,13405 L 9631,14181 L 10812,14199 L 10830,14217 L 10830,15275 L 11218,15293 L 11218,15310 L 10830,15328 L 10830,16369 L 12612,16369 L 12612,12241 L 12223,12223 L 12223,12206 L 12612,12188 L 12612,10777 L 11324,10759 L 11324,8872 L 11059,8855 L 11059,6509 L 11042,6509" fill="none" stroke="#e67e22" stroke-width="20"/><text x="11072" y="6589" font-size="55">2 / 30.7; Назначение не подписано [SKIPPED_GEOMETRY_UNRESOLVED]</text><path data-layer="room-boundary" data-room-id="FLOOR_1_PLAN:dbda1f3916917c37:ROOM" d="M 12947,8696 L 12947,12171 L 13352,12188 L 13352,12206 L 12947,12223 L 12947,16369 L 18221,16369 L 18221,8696 L 12947,8696" fill="none" stroke="#18a558" stroke-width="20"/><path data-layer="coverage-route" data-room-id="FLOOR_1_PLAN:dbda1f3916917c37:ROOM" data-circuit-id="FLOOR_1_PLAN:dbda1f3916917c37:ROOM/circuit-1" d="M 13047,8896 L 18121,8896 L 18121,9096 L 13047,9096 L 13047,9296 L 18121,9296 L 18121,9496 L 13047,9496 L 13047,9696 L 18121,9696 L 18121,9896 L 13047,9896 L 13047,10096 L 18121,10096 L 18121,10296 L 13047,10296 L 13047,10496 L 18121,10496 L 18121,10696 L 13047,10696 L 13047,10896 L 18121,10896 L 18121,11096 L 13047,11096 L 13047,11296 L 18121,11296 L 18121,11496 L 13047,11496 L 13047,11696 L 18121,11696 L 18121,11896 L 13047,11896 L 13047,12096 L 18121,12096 L 18121,12296 L 13047,12296 L 13047,12496 L 18121,12496 L 18121,12696 L 13047,12696 L 13047,12896 L 18121,12896 L 18121,13096 L 13047,13096 L 13047,13296 L 18121,13296 L 18121,13496 L 13047,13496 L 13047,13696 L 18121,13696 L 18121,13896 L 13047,13896 L 13047,14096 L 18121,14096 L 18121,14296 L 13047,14296 L 13047,14496 L 18121,14496 L 18121,14696 L 13047,14696 L 13047,14896 L 18121,14896 L 18121,15096 L 13047,15096 L 13047,15296 L 18121,15296 L 18121,15496 L 13047,15496 L 13047,15696 L 18121,15696 L 18121,15896 L 13047,15896 L 13047,16096 L 18121,16096" fill="none" stroke="#1677ff" stroke-width="10"/><text x="12977" y="8776" font-size="55">3 / 40.9; Кухня / зал [ROUTED_VALID]</text><path data-layer="room-boundary" data-room-id="FLOOR_1_PLAN:2c35c0ccf04544b4:ROOM" d="M 12947,5415 L 12947,8361 L 18221,8361 L 18221,5415 L 12947,5415" fill="none" stroke="#18a558" stroke-width="20"/><path data-layer="coverage-route" data-room-id="FLOOR_1_PLAN:2c35c0ccf04544b4:ROOM" data-circuit-id="FLOOR_1_PLAN:2c35c0ccf04544b4:ROOM/circuit-1" d="M 13047,5615 L 18121,5615 L 18121,5815 L 13047,5815 L 13047,6015 L 18121,6015 L 18121,6215 L 13047,6215 L 13047,6415 L 18121,6415 L 18121,6615 L 13047,6615 L 13047,6815 L 18121,6815 L 18121,7015 L 13047,7015 L 13047,7215 L 18121,7215 L 18121,7415 L 13047,7415 L 13047,7615 L 18121,7615 L 18121,7815 L 13047,7815 L 13047,8015 L 18121,8015 L 18121,8215 L 13047,8215" fill="none" stroke="#1677ff" stroke-width="10"/><text x="12977" y="5495" font-size="55">4 / 15.9; Котельная [ROUTED_VALID]</text><path data-layer="room-boundary" data-room-id="FLOOR_1_PLAN:e8abc7453895cbf7:ROOM" d="M 8255,14499 L 8255,16369 L 10530,16369 L 10530,15345 L 10142,15328 L 10142,15310 L 10530,15293 L 10530,14499 L 8255,14499" fill="none" stroke="#18a558" stroke-width="20"/><path data-layer="coverage-route" data-room-id="FLOOR_1_PLAN:e8abc7453895cbf7:ROOM" data-circuit-id="FLOOR_1_PLAN:e8abc7453895cbf7:ROOM/circuit-1" d="M 8355,14699 L 10430,14699 L 10430,14899 L 8355,14899 L 8355,15099 L 10430,15099 L 10430,15299 L 8355,15299 L 8355,15499 L 10430,15499 L 10430,15699 L 8355,15699 L 8355,15899 L 10430,15899 L 10430,16099 L 8355,16099" fill="none" stroke="#1677ff" stroke-width="10"/><text x="8285" y="14579" font-size="55">5 / 4.4; Подпись частично неразборчива [ROUTED_VALID]</text><path data-layer="room-boundary" data-room-id="FLOOR_1_PLAN:4767e90a4e019716:ROOM" d="M 4269,12506 L 4269,16369 L 7973,16369 L 7973,14217 L 9295,14199 L 9295,13423 L 8890,13405 L 9295,13388 L 9295,12506 L 4269,12506" fill="none" stroke="#18a558" stroke-width="20"/><path data-layer="coverage-route" data-room-id="FLOOR_1_PLAN:4767e90a4e019716:ROOM" data-circuit-id="FLOOR_1_PLAN:4767e90a4e019716:ROOM/circuit-1" d="M 4369,12706 L 9196,12706 L 9196,12906 L 4369,12906 L 4369,13106 L 9196,13106 L 9196,13306 L 4369,13306 L 4369,13506 L 9196,13506 L 9196,13706 L 4369,13706 L 4369,13906 L 9196,13906 L 9196,14106 L 4369,14106 L 4369,14306 L 7873,14306 L 7873,14506 L 4369,14506 L 4369,14706 L 7873,14706 L 7873,14906 L 4369,14906 L 4369,15106 L 7873,15106 L 7873,15306 L 4369,15306 L 4369,15506 L 7873,15506 L 7873,15706 L 4369,15706 L 4369,15906 L 7873,15906 L 7873,16106 L 4369,16106" fill="none" stroke="#1677ff" stroke-width="10"/><text x="4299" y="12586" font-size="55">6 / 16.9; Ванна + туалет [ROUTED_VALID]</text><path data-layer="room-boundary" data-room-id="FLOOR_1_PLAN:8c25b2af4cb28379:ROOM" d="M 4269,9137 L 4269,12171 L 9295,12171 L 9295,11271 L 8890,11253 L 9295,11236 L 9295,9137 L 4269,9137" fill="none" stroke="#18a558" stroke-width="20"/><path data-layer="coverage-route" data-room-id="FLOOR_1_PLAN:8c25b2af4cb28379:ROOM" data-circuit-id="FLOOR_1_PLAN:8c25b2af4cb28379:ROOM/circuit-1" d="M 4369,9337 L 9196,9337 L 9196,9537 L 4369,9537 L 4369,9737 L 9196,9737 L 9196,9937 L 4369,9937 L 4369,10137 L 9196,10137 L 9196,10337 L 4369,10337 L 4369,10537 L 9196,10537 L 9196,10737 L 4369,10737 L 4369,10937 L 9196,10937 L 9196,11137 L 4369,11137 L 4369,11337 L 9196,11337 L 9196,11537 L 4369,11537 L 4369,11737 L 9196,11737 L 9196,11937 L 4369,11937" fill="none" stroke="#1677ff" stroke-width="10"/><text x="4299" y="9217" font-size="55">7 / 15.6; Спальня [ROUTED_VALID]</text><path data-layer="room-boundary" data-room-id="FLOOR_1_PLAN:c5b40c4d2c432677:ROOM" d="M 4269,5415 L 4269,8802 L 9295,8802 L 9295,8131 L 8890,8114 L 8890,8096 L 9295,8078 L 9295,5415 L 4269,5415" fill="none" stroke="#18a558" stroke-width="20"/><path data-layer="coverage-route" data-room-id="FLOOR_1_PLAN:c5b40c4d2c432677:ROOM" data-circuit-id="FLOOR_1_PLAN:c5b40c4d2c432677:ROOM/circuit-1" d="M 4369,5615 L 9196,5615 L 9196,5815 L 4369,5815 L 4369,6015 L 9196,6015 L 9196,6215 L 4369,6215 L 4369,6415 L 9196,6415 L 9196,6615 L 4369,6615 L 4369,6815 L 9196,6815 L 9196,7015 L 4369,7015 L 4369,7215 L 9196,7215 L 9196,7415 L 4369,7415 L 4369,7615 L 9196,7615 L 9196,7815 L 4369,7815 L 4369,8015 L 9196,8015 L 9196,8215 L 4369,8215 L 4369,8415 L 9196,8415 L 9196,8615 L 4369,8615" fill="none" stroke="#1677ff" stroke-width="10"/><text x="4299" y="5495" font-size="55">8 / 17.3; Спальня [ROUTED_VALID]</text></svg>